<?xml version="1.0" encoding="UTF-8" standalone="no"?>
<!-- Created with Inkscape (http://www.inkscape.org/) -->

<svg
   xmlns:dc="http://purl.org/dc/elements/1.1/"
   xmlns:cc="http://creativecommons.org/ns#"
   xmlns:rdf="http://www.w3.org/1999/02/22-rdf-syntax-ns#"
   xmlns:svg="http://www.w3.org/2000/svg"
   xmlns="http://www.w3.org/2000/svg"
   xmlns:sodipodi="http://sodipodi.sourceforge.net/DTD/sodipodi-0.dtd"
   xmlns:inkscape="http://www.inkscape.org/namespaces/inkscape"
   width="225.19821mm"
   height="269.61041mm"
   viewBox="0 0 225.19821 269.61041"
   version="1.1"
   id="svg8"
   inkscape:version="0.92.3 (2405546, 2018-03-11)"
   sodipodi:docname="2-beamed-8th-notes.svg">
  <defs
     id="defs2" />
  <sodipodi:namedview
     id="base"
     pagecolor="#ffffff"
     bordercolor="#666666"
     borderopacity="1.0"
     inkscape:pageopacity="0.0"
     inkscape:pageshadow="2"
     inkscape:zoom="0.24748737"
     inkscape:cx="134.70581"
     inkscape:cy="628.59065"
     inkscape:document-units="mm"
     inkscape:current-layer="layer1"
     showgrid="false"
     inkscape:window-width="1853"
     inkscape:window-height="1025"
     inkscape:window-x="67"
     inkscape:window-y="27"
     inkscape:window-maximized="1" />
  <metadata
     id="metadata5">
    <rdf:RDF>
      <cc:Work
         rdf:about="">
        <dc:format>image/svg+xml</dc:format>
        <dc:type
           rdf:resource="http://purl.org/dc/dcmitype/StillImage" />
        <dc:title></dc:title>
      </cc:Work>
    </rdf:RDF>
  </metadata>
  <g
     inkscape:label="Layer 1"
     inkscape:groupmode="layer"
     id="layer1"
     transform="translate(83.952927,26.788614)">
    <g
       id="g5548"
       transform="matrix(0.26458333,0,0,-0.26458333,50.757786,205.51555)">
      <path
         id="path5546"
         d="M -177.14286,878 H 342 V 47 c -1,-94 -123,-187 -223,-187 -61,0 -109,35 -109,94 0,97 99,188 222,188 33,0 60,-10 80,-26 v 637 h -489.14286 z"
         inkscape:connector-curvature="0"
         style="fill:currentColor"
         sodipodi:nodetypes="cccssscccc" />
    </g>
    <g
       id="g5612"
       transform="matrix(0.26458333,0,0,-0.26458333,-83.952927,205.51555)">
      <path
         id="path5610"
         d="m 302,115 v 763 h 30 V 46 c -1,-94 -123,-187 -223,-187 -61,0 -109,35 -109,94 0,97 99,188 222,188 33,0 61,-10 80,-26 z"
         inkscape:connector-curvature="0"
         style="fill:currentColor" />
    </g>
  </g>
</svg>
