<?xml version="1.0" encoding="UTF-8" standalone="no"?>
<!-- Created with Inkscape (http://www.inkscape.org/) -->

<svg
   xmlns:dc="http://purl.org/dc/elements/1.1/"
   xmlns:cc="http://creativecommons.org/ns#"
   xmlns:rdf="http://www.w3.org/1999/02/22-rdf-syntax-ns#"
   xmlns:svg="http://www.w3.org/2000/svg"
   xmlns="http://www.w3.org/2000/svg"
   xmlns:sodipodi="http://sodipodi.sourceforge.net/DTD/sodipodi-0.dtd"
   xmlns:inkscape="http://www.inkscape.org/namespaces/inkscape"
   width="71.172913mm"
   height="197.90833mm"
   viewBox="0 0 71.172913 197.90832"
   version="1.1"
   id="svg8"
   inkscape:version="0.92.3 (2405546, 2018-03-11)"
   sodipodi:docname="quarter-rest.svg">
  <defs
     id="defs2" />
  <sodipodi:namedview
     id="base"
     pagecolor="#ffffff"
     bordercolor="#666666"
     borderopacity="1.0"
     inkscape:pageopacity="0.0"
     inkscape:pageshadow="2"
     inkscape:zoom="0.7"
     inkscape:cx="-42.410588"
     inkscape:cy="337.71272"
     inkscape:document-units="mm"
     inkscape:current-layer="layer1"
     showgrid="false"
     inkscape:window-width="1853"
     inkscape:window-height="1025"
     inkscape:window-x="67"
     inkscape:window-y="27"
     inkscape:window-maximized="1" />
  <metadata
     id="metadata5">
    <rdf:RDF>
      <cc:Work
         rdf:about="">
        <dc:format>image/svg+xml</dc:format>
        <dc:type
           rdf:resource="http://purl.org/dc/dcmitype/StillImage" />
        <dc:title></dc:title>
      </cc:Work>
    </rdf:RDF>
  </metadata>
  <g
     inkscape:label="Layer 1"
     inkscape:groupmode="layer"
     id="layer1"
     transform="translate(-71.716567,-17.245608)">
    <g
       id="g5808"
       transform="matrix(0.26458333,0,0,-0.26458333,71.451984,115.93519)">
      <path
         id="path5806"
         d="M 78,-38 29,22 c 0,0 -10,10 -10,24 0,8 4,19 14,29 45,47 60,90 60,127 0,72 -57,123 -61,134 -3,6 -4,11 -4,16 0,14 10,21 20,21 6,0 13,-3 18,-8 17,-17 165,-193 165,-193 0,0 4,-9 4,-19 0,-5 -1,-10 -4,-15 -26,-41 -62,-89 -66,-147 0,-4 -1,-9 -1,-13 0,-56 31,-93 69,-139 11,-12 37,-45 37,-57 0,-3 -2,-4 -5,-4 -2,0 -4,0 -7,1 -1,0 -2,1 -3,1 -16,6 -49,17 -78,17 -6,0 -11,0 -16,-1 -32,-6 -47,-41 -47,-72 0,-9 1,-18 4,-26 2,-9 13,-36 26,-36 8,-7 16,-15 16,-24 0,-2 -1,-4 -2,-7 -1,-4 -8,-6 -15,-6 -8,0 -18,3 -26,9 -73,56 -116,105 -116,155 0,53 39,96 82,96 5,0 11,-3 16,-3 4,-1 12,-3 16,-3 5,0 9,1 11,5 1,1 1,3 1,4 0,2 -4,10 -6,14 -13,21 -27,40 -43,60 z"
         inkscape:connector-curvature="0"
         style="fill:currentColor" />
    </g>
  </g>
</svg>
