<?xml version="1.0" encoding="iso-8859-1"?>
<!-- Generator: Adobe Illustrator 19.0.0, SVG Export Plug-In . SVG Version: 6.00 Build 0)  -->
<svg version="1.1" id="Capa_1" xmlns="http://www.w3.org/2000/svg" xmlns:xlink="http://www.w3.org/1999/xlink" x="0px" y="0px"
	 viewBox="0 0 360 360" style="enable-background:new 0 0 360 360;" xml:space="preserve">
<polygon id="XMLID_486_" points="360,75 360,45 0,45 0,75 165,75 165,105 0,105 0,135 165,135 165,165 0,165 0,195 165,195 165,225 
	0,225 0,255 165,255 165,285 0,285 0,315 360,315 360,285 195,285 195,255 360,255 360,225 195,225 195,195 360,195 360,165 
	195,165 195,135 360,135 360,105 195,105 195,75 "/>
<g>
</g>
<g>
</g>
<g>
</g>
<g>
</g>
<g>
</g>
<g>
</g>
<g>
</g>
<g>
</g>
<g>
</g>
<g>
</g>
<g>
</g>
<g>
</g>
<g>
</g>
<g>
</g>
<g>
</g>
</svg>
