<?xml version="1.0" encoding="iso-8859-1"?>
<!-- Generator: Adobe Illustrator 19.0.0, SVG Export Plug-In . SVG Version: 6.00 Build 0)  -->
<svg version="1.1" id="Capa_1" xmlns="http://www.w3.org/2000/svg" xmlns:xlink="http://www.w3.org/1999/xlink" x="0px" y="0px"
	 viewBox="0 0 295 295" style="enable-background:new 0 0 295 295;" xml:space="preserve">
<g id="XMLID_794_">
	<path id="XMLID_797_" d="M93.095,0c-48.714,0-75,35.035-75,68c0,16.393,5.135,30.499,14.848,40.794
		C42.946,119.396,56.83,125,73.095,125c16.569,0,30-13.431,30-30s-13.431-30-30-30c-9.828,0-18.552,4.726-24.023,12.028
		c-0.742-3.194-0.977-6.352-0.977-9.028c0-18.884,15.457-38,45-38c37.663,0,65,35.748,65,85c0,47.058-20.573,76.48-37.831,92.875
		C99.089,227.991,70.241,240,43.095,240v30c35.164,0,70.822-14.716,97.831-40.375c30.417-28.896,47.169-69.605,47.169-114.625
		c0-31.97-9.544-61.113-26.874-82.062C143.649,11.698,119.455,0,93.095,0z"/>
	<circle id="XMLID_798_" cx="233.095" cy="60" r="15"/>
	<circle id="XMLID_799_" cx="233.095" cy="120" r="15"/>
	<path id="XMLID_800_" d="M275.487,248.435c-0.946-2.779-2.228-5.312-3.84-7.594c-1.614-2.279-3.421-4.31-5.424-6.091
		c-2.002-1.779-4.005-3.281-6.008-4.506c1.778-1.001,3.505-2.253,5.174-3.755c1.669-1.502,3.087-3.226,4.256-5.174
		c1.169-1.945,2.111-3.977,2.837-6.091c0.724-2.113,1.085-4.283,1.085-6.51c0-5.45-1.251-10.29-3.754-14.519
		c-2.505-4.228-5.733-7.761-9.681-10.599c-3.952-2.837-8.319-4.978-13.103-6.425c-4.784-1.445-9.458-2.17-14.019-2.17
		c-4.564,0-9.208,0.751-13.935,2.253c-4.731,1.502-9.042,3.672-12.937,6.509c-3.895,2.837-7.091,6.4-9.597,10.681
		c-2.502,4.285-3.754,9.153-3.754,14.604c0,4.34,1.252,8.458,3.754,12.351c2.506,3.896,5.592,6.842,9.265,8.845
		c-1.894,1.225-3.839,2.67-5.843,4.339c-2.002,1.67-3.783,3.618-5.341,5.842c-1.559,2.227-2.837,4.702-3.838,7.427
		c-1.001,2.728-1.502,5.649-1.502,8.762c0,5.787,1.168,11.044,3.505,15.772c2.337,4.73,5.508,8.762,9.512,12.1
		c4.007,3.337,8.652,5.924,13.938,7.76c5.283,1.836,10.875,2.754,16.773,2.754c6.009,0,11.684-0.892,17.024-2.67
		c5.341-1.779,9.985-4.311,13.936-7.594c3.948-3.281,7.093-7.203,9.43-11.767c2.337-4.561,3.504-9.68,3.504-15.354
		C276.905,254.277,276.431,251.218,275.487,248.435z M223.666,201.621c2.558-2.058,5.673-3.088,9.345-3.088
		c3.672,0,6.814,1.03,9.43,3.088c2.614,2.06,3.923,4.702,3.923,7.928c0,1.893-0.391,3.562-1.169,5.007
		c-0.779,1.447-1.81,2.67-3.087,3.672c-1.28,1.001-2.729,1.752-4.339,2.253c-1.616,0.501-3.199,0.751-4.758,0.751
		c-1.559,0-3.115-0.251-4.673-0.751c-1.56-0.501-2.977-1.223-4.256-2.169c-1.279-0.945-2.311-2.141-3.087-3.589
		c-0.779-1.445-1.168-3.171-1.168-5.173C219.827,206.323,221.104,203.681,223.666,201.621z M248.533,261.871
		c-0.893,1.836-2.086,3.421-3.589,4.756c-1.503,1.335-3.283,2.366-5.341,3.088c-2.06,0.726-4.2,1.085-6.426,1.085
		c-2.227,0-4.338-0.359-6.342-1.085c-2.003-0.722-3.784-1.724-5.341-3.004c-1.56-1.278-2.811-2.809-3.755-4.59
		c-0.945-1.778-1.418-3.781-1.418-6.009c0-4.561,1.61-8.178,4.839-10.848c3.225-2.67,7.177-4.005,11.85-4.005
		c2.226,0,4.34,0.334,6.342,1.001c2.003,0.667,3.783,1.614,5.343,2.837c1.556,1.225,2.808,2.753,3.754,4.59
		c0.944,1.835,1.418,3.921,1.418,6.258C249.867,258.06,249.422,260.035,248.533,261.871z"/>
</g>
<g>
</g>
<g>
</g>
<g>
</g>
<g>
</g>
<g>
</g>
<g>
</g>
<g>
</g>
<g>
</g>
<g>
</g>
<g>
</g>
<g>
</g>
<g>
</g>
<g>
</g>
<g>
</g>
<g>
</g>
</svg>
