<?xml version="1.0" encoding="iso-8859-1"?>
<!-- Generator: Adobe Illustrator 19.0.0, SVG Export Plug-In . SVG Version: 6.00 Build 0)  -->
<svg version="1.1" id="Capa_1" xmlns="http://www.w3.org/2000/svg" xmlns:xlink="http://www.w3.org/1999/xlink" x="0px" y="0px"
	 viewBox="0 0 320.07 320.07" style="enable-background:new 0 0 320.07 320.07;" xml:space="preserve">
<path id="XMLID_1007_" d="M281.043,14.316C271.811,5.084,259.027,0,245.048,0c-17.458,0-35.266,7.796-48.857,21.388
	c-11.843,11.843-19.308,26.842-21.018,42.234c-0.244,2.198-0.355,4.379-0.354,6.537h-0.01v134.899l-120,19.953v-78.446
	c6.239,2.564,13.111,3.921,20.305,3.921c17.458,0,35.266-7.796,48.857-21.388c25.344-25.343,28.516-63.407,7.072-84.853
	c-9.232-9.232-22.016-14.316-35.995-14.316c-17.458,0-35.266,7.796-48.858,21.388C34.348,63.16,26.883,78.159,25.173,93.552
	c-0.244,2.198-0.354,4.379-0.354,6.537h-0.01V320.07l180-29.93V116.636c6.239,2.565,13.111,3.921,20.305,3.921
	c17.458,0,35.266-7.796,48.857-21.388C299.314,73.826,302.486,35.762,281.043,14.316z M54.809,285.012v-29.93l120-19.953v29.93
	L54.809,285.012z"/>
<g>
</g>
<g>
</g>
<g>
</g>
<g>
</g>
<g>
</g>
<g>
</g>
<g>
</g>
<g>
</g>
<g>
</g>
<g>
</g>
<g>
</g>
<g>
</g>
<g>
</g>
<g>
</g>
<g>
</g>
</svg>
