<?xml version="1.0" encoding="iso-8859-1"?>
<!-- Generator: Adobe Illustrator 19.0.0, SVG Export Plug-In . SVG Version: 6.00 Build 0)  -->
<svg version="1.1" id="Capa_1" xmlns="http://www.w3.org/2000/svg" xmlns:xlink="http://www.w3.org/1999/xlink" x="0px" y="0px"
	 viewBox="0 0 390 390" style="enable-background:new 0 0 390 390;" xml:space="preserve">
<g id="XMLID_880_">
	<rect id="XMLID_882_" x="360" y="90" width="30" height="210"/>
	<path id="XMLID_883_" d="M300,144.157c-20.487-32.341-59.871-54.282-105-54.282c-45.129,0-84.513,21.941-105,54.282V90H60v210h30
		v-54.157c20.487,32.341,59.871,54.282,105,54.282c45.129,0,84.513-21.941,105-54.282V300h30V90h-30V144.157z M135,250.943V139.057
		c15.935-11.92,36.969-19.182,60-19.182c23.031,0,44.065,7.262,60,19.182v111.887c-15.935,11.92-36.969,19.182-60,19.182
		C171.969,270.125,150.935,262.863,135,250.943z"/>
	<rect id="XMLID_886_" y="90" width="30" height="210"/>
</g>
<g>
</g>
<g>
</g>
<g>
</g>
<g>
</g>
<g>
</g>
<g>
</g>
<g>
</g>
<g>
</g>
<g>
</g>
<g>
</g>
<g>
</g>
<g>
</g>
<g>
</g>
<g>
</g>
<g>
</g>
</svg>
