<?xml version="1.0" encoding="iso-8859-1"?>
<!-- Generator: Adobe Illustrator 19.0.0, SVG Export Plug-In . SVG Version: 6.00 Build 0)  -->
<svg version="1.1" id="Capa_1" xmlns="http://www.w3.org/2000/svg" xmlns:xlink="http://www.w3.org/1999/xlink" x="0px" y="0px"
	 viewBox="0 0 210 210" style="enable-background:new 0 0 210 210;" xml:space="preserve">
<path id="XMLID_812_" d="M210,90h-28.801C175.145,59.186,150.814,34.855,120,28.8V0H90v28.8C59.186,34.855,34.855,59.186,28.801,90
	H0v30h28.801c6.055,30.814,30.385,55.145,61.199,61.2V210h30v-28.8c30.814-6.055,55.145-30.385,61.199-61.2H210V90z M150.235,90H120
	V59.765C134.234,64.498,145.502,75.766,150.235,90z M90,59.765V90H59.765C64.498,75.766,75.766,64.498,90,59.765z M59.765,120H90
	v30.235C75.766,145.502,64.498,134.234,59.765,120z M120,150.235V120h30.235C145.502,134.234,134.234,145.502,120,150.235z"/>
<g>
</g>
<g>
</g>
<g>
</g>
<g>
</g>
<g>
</g>
<g>
</g>
<g>
</g>
<g>
</g>
<g>
</g>
<g>
</g>
<g>
</g>
<g>
</g>
<g>
</g>
<g>
</g>
<g>
</g>
</svg>
