<?xml version="1.0" encoding="iso-8859-1"?>
<!-- Generator: Adobe Illustrator 19.0.0, SVG Export Plug-In . SVG Version: 6.00 Build 0)  -->
<svg version="1.1" id="Capa_1" xmlns="http://www.w3.org/2000/svg" xmlns:xlink="http://www.w3.org/1999/xlink" x="0px" y="0px"
	 viewBox="0 0 240 240" style="enable-background:new 0 0 240 240;" xml:space="preserve">
<g id="XMLID_10_">
	<path id="XMLID_934_" d="M122.106,210c-24.521,0-46.333-14.148-60.054-35.986V65.988C75.773,44.148,97.585,30,122.106,30
		c22.952,0,44.035,12.688,57.989,32.921C169.997,67.75,163.019,78.06,163.019,90c0,16.568,13.432,30,30,30c16.568,0,30-13.432,30-30
		c0-3.926-0.762-7.672-2.133-11.107C205.999,32.281,166.685,0,122.106,0C64.14,0,16.981,53.832,16.981,120S64.14,240,122.106,240
		c41.503,0,78.517-27.303,95.601-70.003H184.56C170.773,194.727,147.52,210,122.106,210z"/>
</g>
<g>
</g>
<g>
</g>
<g>
</g>
<g>
</g>
<g>
</g>
<g>
</g>
<g>
</g>
<g>
</g>
<g>
</g>
<g>
</g>
<g>
</g>
<g>
</g>
<g>
</g>
<g>
</g>
<g>
</g>
</svg>
