<?xml version="1.0" encoding="iso-8859-1"?>
<!-- Generator: Adobe Illustrator 19.0.0, SVG Export Plug-In . SVG Version: 6.00 Build 0)  -->
<svg version="1.1" id="Capa_1" xmlns="http://www.w3.org/2000/svg" xmlns:xlink="http://www.w3.org/1999/xlink" x="0px" y="0px"
	 viewBox="0 0 300 300" style="enable-background:new 0 0 300 300;" xml:space="preserve">
<g id="XMLID_9_">
	<path id="XMLID_936_" d="M165,238.658V61.353c17.842,3.767,33.803,15.194,45.095,31.568C199.997,97.75,193.019,108.06,193.019,120
		c0,16.568,13.432,30,30,30c16.568,0,30-13.432,30-30c0-3.926-0.762-7.672-2.133-11.107C237.454,66.835,204.131,36.453,165,30.918V0
		h-30v31.598C85.142,40.951,46.981,90.48,46.981,150S85.142,259.049,135,268.402V300h30v-30.902
		c36.154-5.01,67.415-30.881,82.708-69.101H214.56C203.146,220.469,185.244,234.447,165,238.658z M92.052,204.014V95.988
		c10.429-16.6,25.533-28.756,42.948-33.633v175.289C117.585,232.768,102.481,220.612,92.052,204.014z"/>
</g>
<g>
</g>
<g>
</g>
<g>
</g>
<g>
</g>
<g>
</g>
<g>
</g>
<g>
</g>
<g>
</g>
<g>
</g>
<g>
</g>
<g>
</g>
<g>
</g>
<g>
</g>
<g>
</g>
<g>
</g>
</svg>
