<?xml version="1.0" encoding="iso-8859-1"?>
<!-- Generator: Adobe Illustrator 19.0.0, SVG Export Plug-In . SVG Version: 6.00 Build 0)  -->
<svg version="1.1" id="Capa_1" xmlns="http://www.w3.org/2000/svg" xmlns:xlink="http://www.w3.org/1999/xlink" x="0px" y="0px"
	 viewBox="0 0 270 270" style="enable-background:new 0 0 270 270;" xml:space="preserve">
<path id="XMLID_923_" d="M214.641,156.642c-10.66-17.767-29.275-25.48-48.577-20.137c-2.379,0.659-4.681,1.507-6.901,2.507V0h-30
	v149.146c-10.945-12.34-26.776-17.16-43.099-12.642c-2.379,0.659-4.681,1.507-6.901,2.507V0h-30v270h30
	c5.881-4.736,21.586-18.098,35.412-34.425c5.118-6.044,10.241-12.874,14.588-20.165V270h30c5.881-4.736,21.586-18.098,35.412-34.425
	C212.578,214.313,230.674,183.359,214.641,156.642z M91.945,215.875c-4.175,4.955-8.586,9.608-12.782,13.75V185
	c0-10.037,7.682-17.581,14.91-19.584c6.258-1.733,11.115,0.446,14.846,6.661C111.41,176.231,114.746,188.814,91.945,215.875z
	 M171.945,215.875c-4.175,4.955-8.586,9.608-12.782,13.75V185c0-10.037,7.682-17.581,14.91-19.584
	c6.258-1.733,11.115,0.446,14.846,6.661C191.41,176.231,194.746,188.814,171.945,215.875z"/>
<g>
</g>
<g>
</g>
<g>
</g>
<g>
</g>
<g>
</g>
<g>
</g>
<g>
</g>
<g>
</g>
<g>
</g>
<g>
</g>
<g>
</g>
<g>
</g>
<g>
</g>
<g>
</g>
<g>
</g>
</svg>
