<?xml version="1.0" encoding="iso-8859-1"?>
<!-- Generator: Adobe Illustrator 19.0.0, SVG Export Plug-In . SVG Version: 6.00 Build 0)  -->
<svg version="1.1" id="Capa_1" xmlns="http://www.w3.org/2000/svg" xmlns:xlink="http://www.w3.org/1999/xlink" x="0px" y="0px"
	 viewBox="0 0 290.281 290.281" style="enable-background:new 0 0 290.281 290.281;" xml:space="preserve">
<g id="XMLID_3_">
	<path id="XMLID_988_" d="M184.076,191.112c-13.592-13.592-31.399-21.388-48.857-21.388c-7.193,0-14.065,1.356-20.305,3.921V80.106
		c5.808,7.304,12.425,14.393,19.848,21.217c15.039,13.827,22.623,30.275,22.541,48.891c0,0.022-0.002,0.046-0.002,0.068h30.002
		c0.101-26.995-11.046-51.56-32.236-71.044C128.798,55.09,114.914,27.689,114.914,0h-30v220.122h0.01
		c-0.001,2.158,0.11,4.339,0.354,6.537c1.71,15.393,9.175,30.392,21.018,42.234c13.592,13.592,31.399,21.388,48.858,21.388
		c13.979,0,26.763-5.084,35.995-14.316C212.592,254.52,209.42,216.455,184.076,191.112z"/>
</g>
<g>
</g>
<g>
</g>
<g>
</g>
<g>
</g>
<g>
</g>
<g>
</g>
<g>
</g>
<g>
</g>
<g>
</g>
<g>
</g>
<g>
</g>
<g>
</g>
<g>
</g>
<g>
</g>
<g>
</g>
</svg>
