<?xml version="1.0" encoding="iso-8859-1"?>
<!-- Generator: Adobe Illustrator 19.0.0, SVG Export Plug-In . SVG Version: 6.00 Build 0)  -->
<svg version="1.1" id="Capa_1" xmlns="http://www.w3.org/2000/svg" xmlns:xlink="http://www.w3.org/1999/xlink" x="0px" y="0px"
	 viewBox="0 0 380 380" style="enable-background:new 0 0 380 380;" xml:space="preserve">
<path id="XMLID_930_" d="M224.574,235.575c18.004-21.263,36.1-52.216,20.067-78.934c-10.661-17.767-29.276-25.48-48.578-20.137
	c-2.379,0.659-4.681,1.507-6.901,2.507V0h-30v300h-30l45,80l45-79.998h-30V270C195.043,265.264,210.748,251.902,224.574,235.575z
	 M204.072,165.416c6.258-1.733,11.115,0.446,14.846,6.661c2.492,4.154,5.828,16.737-16.974,43.798
	c-4.175,4.955-8.586,9.608-12.782,13.75V185C189.162,174.963,196.844,167.419,204.072,165.416z"/>
<g>
</g>
<g>
</g>
<g>
</g>
<g>
</g>
<g>
</g>
<g>
</g>
<g>
</g>
<g>
</g>
<g>
</g>
<g>
</g>
<g>
</g>
<g>
</g>
<g>
</g>
<g>
</g>
<g>
</g>
</svg>
