<?xml version="1.0" encoding="iso-8859-1"?>
<!-- Generator: Adobe Illustrator 19.0.0, SVG Export Plug-In . SVG Version: 6.00 Build 0)  -->
<svg version="1.1" id="Capa_1" xmlns="http://www.w3.org/2000/svg" xmlns:xlink="http://www.w3.org/1999/xlink" x="0px" y="0px"
	 viewBox="0 0 305 305" style="enable-background:new 0 0 305 305;" xml:space="preserve">
<path id="XMLID_927_" d="M206.709,191.642c-10.661-17.767-29.276-25.48-48.578-20.137c-2.379,0.659-4.681,1.507-6.901,2.507V80
	h30.866l-45-80l-45,80h29.134v225h30c5.881-4.736,21.586-18.098,35.412-34.425C204.645,249.313,222.741,218.359,206.709,191.642z
	 M164.011,250.875c-4.175,4.955-8.586,9.608-12.782,13.75V220c0-10.037,7.682-17.581,14.91-19.584
	c6.258-1.733,11.115,0.446,14.846,6.661C183.477,211.231,186.813,223.814,164.011,250.875z"/>
<g>
</g>
<g>
</g>
<g>
</g>
<g>
</g>
<g>
</g>
<g>
</g>
<g>
</g>
<g>
</g>
<g>
</g>
<g>
</g>
<g>
</g>
<g>
</g>
<g>
</g>
<g>
</g>
<g>
</g>
</svg>
