<?xml version="1.0" encoding="iso-8859-1"?>
<!-- Generator: Adobe Illustrator 19.0.0, SVG Export Plug-In . SVG Version: 6.00 Build 0)  -->
<svg version="1.1" id="Capa_1" xmlns="http://www.w3.org/2000/svg" xmlns:xlink="http://www.w3.org/1999/xlink" x="0px" y="0px"
	 viewBox="0 0 202.949 202.949" style="enable-background:new 0 0 202.949 202.949;" xml:space="preserve">
<path id="XMLID_851_" d="M200.387,72.364c-1.711-5.396-4.172-10.045-7.381-13.939c-3.213-3.896-7.143-6.971-11.787-9.227
	c-4.648-2.254-9.84-3.381-15.58-3.381c-7.791,0-14.83,1.709-21.115,5.125c-6.287,3.418-11.961,8.199-17.016,14.35l3.895-17.426
	h-28.699l-1.876,8.816H62.936l2.255-10.047c2.05-10.111,6.765-15.17,14.145-15.17c2.05,0,4.306,0.309,6.766,0.924
	c2.46,0.615,4.577,1.402,6.354,2.358l11.275-24.6C94.844,5.913,86.234,3.792,77.9,3.792c-5.468,0-10.66,1.025-15.58,3.074
	c-4.92,2.051-9.398,4.99-13.428,8.816c-4.032,3.826-7.483,8.475-10.353,13.94c-2.87,5.467-4.99,11.551-6.354,18.244l-1.846,8.816
	H17.425l-5.33,24.805H25.01L0,199.157h32.8l25.011-117.67h37.74l-25.032,117.67h32.8l13.119-61.09
	c1.775,6.148,5.125,10.936,10.045,14.35c4.92,3.414,11.205,5.125,18.861,5.125c7.514,0,14.76-1.846,21.73-5.535
	c6.969-3.689,13.119-8.643,18.449-14.863c5.33-6.217,9.564-13.428,12.709-21.627c3.143-8.199,4.717-16.811,4.717-25.83
	C202.949,83.536,202.094,77.765,200.387,72.364z M166.254,107.829c-1.641,4.17-3.793,7.893-6.459,11.172
	c-2.664,3.281-5.707,5.914-9.121,7.893c-3.418,1.983-6.971,2.973-10.66,2.973c-4.51,0-8.373-1.844-11.582-5.535
	c-3.213-3.689-5.299-8.268-6.254-13.734l4.715-22.141c3.142-4.51,6.832-8.098,11.07-10.762c4.234-2.666,8.334-3.998,12.301-3.998
	c5.74,0,10.25,2.018,13.529,6.049c3.281,4.031,4.92,9.121,4.92,15.271C168.713,99.392,167.893,103.661,166.254,107.829z"/>
<g>
</g>
<g>
</g>
<g>
</g>
<g>
</g>
<g>
</g>
<g>
</g>
<g>
</g>
<g>
</g>
<g>
</g>
<g>
</g>
<g>
</g>
<g>
</g>
<g>
</g>
<g>
</g>
<g>
</g>
</svg>
