<?xml version="1.0" encoding="iso-8859-1"?>
<!-- Generator: Adobe Illustrator 19.0.0, SVG Export Plug-In . SVG Version: 6.00 Build 0)  -->
<svg version="1.1" id="Capa_1" xmlns="http://www.w3.org/2000/svg" xmlns:xlink="http://www.w3.org/1999/xlink" x="0px" y="0px"
	 viewBox="0 0 270.51 270.51" style="enable-background:new 0 0 270.51 270.51;" xml:space="preserve">
<g id="XMLID_947_">
	<path id="XMLID_949_" d="M195.472,50.388c-0.008-13.935-5.05-26.82-14.3-36.071C171.94,5.084,159.156,0,145.177,0
		c-17.458,0-35.266,7.796-48.858,21.388C70.976,46.73,67.804,84.795,89.248,106.24c9.232,9.233,22.016,14.316,35.995,14.316
		c13.971,0,28.16-5.004,40.239-13.965V270.51h30V50.388H195.472z M165.301,53.621c-0.947,8.522-5.472,17.393-12.414,24.335
		c-7.89,7.89-18.225,12.601-27.645,12.601c-4.221,0-10.211-0.959-14.781-5.529c-9.582-9.583-6.344-29.012,7.071-42.427
		C125.422,34.711,135.757,30,145.177,30c4.221,0,10.211,0.959,14.782,5.529C165.716,41.287,165.777,49.336,165.301,53.621z"/>
</g>
<g>
</g>
<g>
</g>
<g>
</g>
<g>
</g>
<g>
</g>
<g>
</g>
<g>
</g>
<g>
</g>
<g>
</g>
<g>
</g>
<g>
</g>
<g>
</g>
<g>
</g>
<g>
</g>
<g>
</g>
</svg>
