<?xml version="1.0" encoding="iso-8859-1"?>
<!-- Generator: Adobe Illustrator 19.0.0, SVG Export Plug-In . SVG Version: 6.00 Build 0)  -->
<svg version="1.1" id="Capa_1" xmlns="http://www.w3.org/2000/svg" xmlns:xlink="http://www.w3.org/1999/xlink" x="0px" y="0px"
	 viewBox="0 0 270 270" style="enable-background:new 0 0 270 270;" xml:space="preserve">
<path id="XMLID_900_" d="M211.546,75.039C211.034,75.014,210.519,75,210,75c-16.568,0-30,13.432-30,30s13.432,30,30,30
	c11.098,0,20.781-6.031,25.971-14.989C238.527,124.425,240,129.542,240,135c0,17.383-12.617,30-30,30
	c-5.666,0-22.487-0.007-60-36.287V30h-30v71.275C97.604,83.463,78.128,75,60,75c-33.084,0-60,26.916-60,60
	c0,32.565,26.084,59.135,58.454,59.961C58.966,194.986,59.481,195,60,195c16.568,0,30-13.432,30-30s-13.432-30-30-30
	c-11.098,0-20.781,6.031-25.971,14.989C31.473,145.575,30,140.458,30,135c0-16.542,13.458-30,30-30
	c18.153,0,41.885,18.825,60,36.295V240h30v-71.193C172.429,186.75,191.584,195,210,195c16.643,0,31.95-6.284,43.102-17.696
	C263.999,166.154,270,151.131,270,135C270,102.435,243.916,75.865,211.546,75.039z"/>
<g>
</g>
<g>
</g>
<g>
</g>
<g>
</g>
<g>
</g>
<g>
</g>
<g>
</g>
<g>
</g>
<g>
</g>
<g>
</g>
<g>
</g>
<g>
</g>
<g>
</g>
<g>
</g>
<g>
</g>
</svg>
