<?xml version="1.0" encoding="iso-8859-1"?>
<!-- Generator: Adobe Illustrator 19.0.0, SVG Export Plug-In . SVG Version: 6.00 Build 0)  -->
<svg version="1.1" id="Capa_1" xmlns="http://www.w3.org/2000/svg" xmlns:xlink="http://www.w3.org/1999/xlink" x="0px" y="0px"
	 viewBox="0 0 459.861 459.861" style="enable-background:new 0 0 459.861 459.861;" xml:space="preserve">
<g id="XMLID_535_">
	<path id="XMLID_785_" d="M356.87,73.435c-0.946-2.779-2.228-5.312-3.84-7.594c-1.614-2.279-3.421-4.311-5.424-6.091
		c-2.002-1.779-4.005-3.281-6.008-4.506c1.778-1.001,3.505-2.253,5.174-3.755c1.669-1.502,3.087-3.226,4.256-5.174
		c1.169-1.945,2.111-3.977,2.837-6.091c0.724-2.113,1.085-4.283,1.085-6.51c0-5.45-1.251-10.29-3.754-14.519
		c-2.505-4.228-5.733-7.761-9.681-10.599c-3.952-2.837-8.319-4.978-13.103-6.425C323.629,0.725,318.955,0,314.393,0
		c-4.564,0-9.208,0.752-13.935,2.253c-4.731,1.502-9.042,3.672-12.937,6.509c-3.895,2.837-7.091,6.4-9.597,10.681
		c-2.502,4.285-3.754,9.153-3.754,14.604c0,4.34,1.252,8.458,3.754,12.351c2.506,3.896,5.592,6.842,9.265,8.845
		c-1.894,1.225-3.839,2.67-5.843,4.339c-2.002,1.67-3.783,3.618-5.341,5.842c-1.559,2.227-2.837,4.702-3.838,7.427
		c-1.001,2.728-1.502,5.649-1.502,8.762c0,5.787,1.168,11.044,3.505,15.772c2.337,4.73,5.508,8.762,9.512,12.101
		c4.007,3.337,8.652,5.924,13.938,7.76c5.283,1.836,10.875,2.754,16.772,2.754c6.009,0,11.685-0.892,17.024-2.67
		c5.341-1.779,9.985-4.311,13.937-7.594c3.948-3.281,7.093-7.203,9.43-11.767c2.337-4.561,3.504-9.68,3.504-15.355
		C358.288,79.277,357.813,76.218,356.87,73.435z M305.049,26.621c2.558-2.058,5.673-3.088,9.345-3.088
		c3.672,0,6.814,1.03,9.43,3.088c2.614,2.06,3.923,4.702,3.923,7.928c0,1.893-0.391,3.562-1.169,5.007
		c-0.779,1.447-1.81,2.67-3.087,3.672c-1.28,1.001-2.728,1.752-4.339,2.253c-1.616,0.5-3.199,0.751-4.758,0.751
		c-1.559,0-3.115-0.25-4.673-0.751c-1.56-0.501-2.978-1.223-4.256-2.169c-1.279-0.945-2.31-2.141-3.087-3.589
		c-0.779-1.445-1.168-3.171-1.168-5.173C301.21,31.323,302.487,28.681,305.049,26.621z M329.916,86.871
		c-0.893,1.836-2.086,3.421-3.589,4.756c-1.503,1.335-3.283,2.366-5.341,3.088c-2.06,0.726-4.2,1.085-6.426,1.085
		c-2.227,0-4.338-0.359-6.342-1.085c-2.003-0.722-3.784-1.724-5.341-3.004c-1.56-1.278-2.811-2.809-3.755-4.59
		c-0.945-1.778-1.418-3.781-1.418-6.009c0-4.561,1.61-8.178,4.839-10.848c3.226-2.67,7.177-4.005,11.85-4.005
		c2.226,0,4.34,0.333,6.342,1.001c2.003,0.667,3.783,1.614,5.343,2.837c1.556,1.225,2.808,2.753,3.754,4.59
		c0.944,1.835,1.418,3.921,1.418,6.258C331.25,83.061,330.804,85.035,329.916,86.871z"/>
	<path id="XMLID_789_" d="M213.503,219.381c-0.739,0-1.468,0.011-2.189,0.034c-4.751-18.989-9.194-34.531-12.22-44.64
		c-1.258-4.203-2.438-8.269-3.541-12.192c13.876-15.219,26.346-29.842,33.267-44.592c19.622-41.823,10.708-66.709,3.647-77.821
		c-8.164-12.849-21.611-20.218-36.894-20.218c-13.893,0-25.356,5.533-33.149,16c-15.284,20.528-15.407,58.521-0.127,118.479
		c-29.219,31.773-60.724,67.763-60.724,112.563c0,47.332,25.918,70.548,47.66,81.689c22.534,11.546,45.015,12.242,45.96,12.266
		l0.38,0.005c3.073,0,6.112-0.127,9.109-0.378l0.102,1.48c1.336,19.24,2.49,35.857,0.004,50.362
		c-2.37,13.823-11.736,18.005-19.006,17.382c-3.07-0.261-10.21-1.744-10.21-9.848h-30c0,21.169,15.841,37.882,37.666,39.74
		c1.33,0.113,2.656,0.169,3.98,0.169c10.054,0,19.839-3.24,27.914-9.306c10.179-7.647,16.827-19.083,19.225-33.069
		c3.096-18.058,1.826-36.341,0.355-57.511l-0.316-4.572c-0.044-0.64-0.089-1.278-0.135-1.919c6.9-2.901,13.235-6.612,18.808-11.07
		c17.339-13.872,26.504-33.742,26.504-57.463c0-18.044-6.781-34.677-19.096-46.834C248.24,226.035,231.557,219.381,213.503,219.381z
		 M186.487,53.868c1.515-2.034,3.663-3.916,9.086-3.916c3.451,0,8.261,1.094,11.572,6.307c2.361,3.716,8.945,18.232-5.486,48.989
		c-3.164,6.746-8.46,14.108-14.907,21.894C176.077,76.267,182.484,59.244,186.487,53.868z M195.855,330.951
		c-1.764-0.087-18.08-1.109-33.732-9.38c-20.557-10.862-30.55-28.715-30.55-54.579c0-27.928,19.13-54.306,40.316-78.423
		c2.907,9.939,6.715,23.599,10.722,39.708c-12.94,9.11-19.038,23.895-19.038,38.007c0,11.36,4.616,21.066,12.997,27.331
		c6.43,4.806,14.077,6.893,21.186,7.503c1.588,9.726,3.009,19.631,4.186,29.57C199.898,330.858,197.863,330.944,195.855,330.951z
		 M231.007,321.302c-3.197-25.015-7.776-49.574-12.599-71.639c18.326,2.149,31.165,16.328,31.165,35.288
		C249.573,302.419,241.876,314.088,231.007,321.302z"/>
</g>
<g>
</g>
<g>
</g>
<g>
</g>
<g>
</g>
<g>
</g>
<g>
</g>
<g>
</g>
<g>
</g>
<g>
</g>
<g>
</g>
<g>
</g>
<g>
</g>
<g>
</g>
<g>
</g>
<g>
</g>
</svg>
