<svg version="1.1" viewBox="0.0 0.0 121.22572178477691 123.39107611548556" fill="none" stroke="none" stroke-linecap="square" stroke-miterlimit="10" xmlns:xlink="http://www.w3.org/1999/xlink" xmlns="http://www.w3.org/2000/svg"><clipPath id="p.0"><path d="m0 0l121.22572 0l0 123.391075l-121.22572 0l0 -123.391075z" clip-rule="nonzero"/></clipPath><g clip-path="url(#p.0)"><path fill="#000000" fill-opacity="0.0" d="m0 0l121.22572 0l0 123.391075l-121.22572 0z" fill-rule="evenodd"/><path fill="#f17e7e" d="m1.5094225 10.942453l0 0c0 -5.4069905 4.383232 -9.790222 9.790222 -9.790222l39.159714 0l0 0c2.596527 0 5.086708 1.031467 6.9227333 2.8674896c1.8360214 1.8360229 2.8674889 4.326204 2.8674889 6.922733l0 39.159714c0 5.40699 -4.383232 9.790222 -9.790222 9.790222l-39.159714 0c-5.40699 0 -9.790222 -4.383232 -9.790222 -9.790222z" fill-rule="evenodd"/><path stroke="#000000" stroke-width="2.0" stroke-linejoin="round" stroke-linecap="butt" d="m1.5094225 10.942453l0 0c0 -5.4069905 4.383232 -9.790222 9.790222 -9.790222l39.159714 0l0 0c2.596527 0 5.086708 1.031467 6.9227333 2.8674896c1.8360214 1.8360229 2.8674889 4.326204 2.8674889 6.922733l0 39.159714c0 5.40699 -4.383232 9.790222 -9.790222 9.790222l-39.159714 0c-5.40699 0 -9.790222 -4.383232 -9.790222 -9.790222z" fill-rule="evenodd"/><path fill="#f0ee8c" d="m61.066006 10.942453l0 0c0 -5.4069905 4.3832283 -9.790222 9.790218 -9.790222l39.159714 0l0 0c2.596527 0 5.086708 1.031467 6.922737 2.8674896c1.8360214 1.8360229 2.867485 4.326204 2.867485 6.922733l0 39.159714c0 5.40699 -4.383232 9.790222 -9.790222 9.790222l-39.159714 0c-5.40699 0 -9.790218 -4.383232 -9.790218 -9.790222z" fill-rule="evenodd"/><path stroke="#000000" stroke-width="2.0" stroke-linejoin="round" stroke-linecap="butt" d="m61.066006 10.942453l0 0c0 -5.4069905 4.3832283 -9.790222 9.790218 -9.790222l39.159714 0l0 0c2.596527 0 5.086708 1.031467 6.922737 2.8674896c1.8360214 1.8360229 2.867485 4.326204 2.867485 6.922733l0 39.159714c0 5.40699 -4.383232 9.790222 -9.790222 9.790222l-39.159714 0c-5.40699 0 -9.790218 -4.383232 -9.790218 -9.790222z" fill-rule="evenodd"/><path fill="#8dc063" d="m1.5091864 72.79285l0 0c0 -5.40699 4.3832316 -9.790222 9.790221 -9.790222l98.718765 0c2.5965347 0 5.0867157 1.0314636 6.922737 2.8674927c1.8360214 1.8360214 2.867485 4.3262024 2.867485 6.9227295l0 39.159714c0 5.40699 -4.3832245 9.790222 -9.790222 9.790222l-98.718765 0c-5.40699 0 -9.790221 -4.383232 -9.790221 -9.790222z" fill-rule="evenodd"/><path stroke="#000000" stroke-width="2.0" stroke-linejoin="round" stroke-linecap="butt" d="m1.5091864 72.79285l0 0c0 -5.40699 4.3832316 -9.790222 9.790221 -9.790222l98.718765 0c2.5965347 0 5.0867157 1.0314636 6.922737 2.8674927c1.8360214 1.8360214 2.867485 4.3262024 2.867485 6.9227295l0 39.159714c0 5.40699 -4.3832245 9.790222 -9.790222 9.790222l-98.718765 0c-5.40699 0 -9.790221 -4.383232 -9.790221 -9.790222z" fill-rule="evenodd"/></g></svg>