<?xml version="1.0" encoding="iso-8859-1"?>
<!-- Generator: Adobe Illustrator 19.0.0, SVG Export Plug-In . SVG Version: 6.00 Build 0)  -->
<svg version="1.1" id="Capa_1" xmlns="http://www.w3.org/2000/svg" xmlns:xlink="http://www.w3.org/1999/xlink" x="0px" y="0px"
	 viewBox="0 0 260 260" style="enable-background:new 0 0 260 260;" xml:space="preserve">
<g id="XMLID_901_">
	<path id="XMLID_902_" d="M164.494,116.719l79.071-79.071l-21.213-21.213l-98.511,98.511c-25.198-0.443-55.4-3.898-68.267-16.765
		c-11.697-11.697-11.697-30.729,0-42.427c3.859-3.859,8.52-6.436,13.448-7.749c-2.664,10.004-0.082,21.115,7.766,28.962
		c11.716,11.716,30.711,11.716,42.426,0c11.716-11.715,11.716-30.709,0-42.426h0.001c-23.395-23.395-61.461-23.394-84.854,0
		c-23.395,23.394-23.395,61.459,0,84.853c12.843,12.843,32.648,20.636,61.166,23.865l-79.094,79.094l21.213,21.213l98.51-98.51
		c52.03,0.895,63.909,12.763,67.911,16.764c12.291,12.292,12.292,30.136,0,42.428c-3.859,3.859-8.52,6.436-13.449,7.749
		c2.666-10.004,0.083-21.115-7.764-28.963c-11.716-11.716-30.711-11.716-42.427,0c-11.716,11.716-11.716,30.711,0,42.427
		c0.366,0.366,0.74,0.722,1.121,1.065c11.55,10.976,26.422,16.48,41.306,16.48c15.364,0,30.729-5.849,42.426-17.546
		c11.406-11.406,17.786-26.273,17.966-41.862c0.183-15.954-6.197-31.223-17.966-42.992
		C212.282,127.608,192.952,119.902,164.494,116.719z"/>
	<circle id="XMLID_903_" cx="245" cy="100" r="15"/>
	<circle id="XMLID_904_" cx="15" cy="160" r="15"/>
</g>
<g>
</g>
<g>
</g>
<g>
</g>
<g>
</g>
<g>
</g>
<g>
</g>
<g>
</g>
<g>
</g>
<g>
</g>
<g>
</g>
<g>
</g>
<g>
</g>
<g>
</g>
<g>
</g>
<g>
</g>
</svg>
