<?xml version="1.0" encoding="iso-8859-1"?>
<!-- Generator: Adobe Illustrator 19.0.0, SVG Export Plug-In . SVG Version: 6.00 Build 0)  -->
<svg version="1.1" id="Capa_1" xmlns="http://www.w3.org/2000/svg" xmlns:xlink="http://www.w3.org/1999/xlink" x="0px" y="0px"
	 viewBox="0 0 450 450" style="enable-background:new 0 0 450 450;" xml:space="preserve">
<path id="XMLID_971_" d="M314.848,255.446c6.088-16.234,7.997-33.232,5.51-49.568c-1.061-6.967-2.945-13.747-5.582-20.276
	c11.83-31.606,10.468-73.207-25.598-106.363C262.91,55.09,249.025,27.69,249.025,0h-30v333.364
	c-6.239-2.564-13.111-3.921-20.305-3.921c-17.458,0-35.266,7.796-48.857,21.388c-25.344,25.343-28.516,63.407-7.072,84.853
	c9.232,9.232,22.016,14.316,35.995,14.316c17.458,0,35.266-7.796,48.857-21.388c11.843-11.843,19.308-26.842,21.018-42.234
	c0.244-2.198,0.355-4.379,0.355-6.537h0.01v-90.015c5.808,7.304,12.425,14.393,19.848,21.217
	c31.773,29.21,25.067,66.542,9.672,89.637l24.961,16.641c16.933-25.398,24.191-59.947,11.354-91.955
	C322.583,304.597,324.598,279.563,314.848,255.446z M291.437,221.376c-0.739-0.716-1.488-1.43-2.259-2.138
	c-22.767-20.93-36.224-44.303-39.408-68.189c5.626,6.972,11.999,13.744,19.104,20.275
	C287.065,188.049,291.837,206.212,291.437,221.376z M268.874,101.324c18.095,16.636,22.88,34.772,22.485,49.998
	c-0.721-0.698-1.438-1.399-2.182-2.084c-22.767-20.93-36.224-44.304-39.408-68.19C255.396,88.021,261.77,94.792,268.874,101.324z
	 M249.818,221.105c5.614,6.952,11.972,13.704,19.056,20.218c17.98,16.531,22.822,34.538,22.496,49.705
	c-0.717-0.694-1.445-1.386-2.191-2.071C266.519,268.126,253.084,244.875,249.818,221.105z"/>
<g>
</g>
<g>
</g>
<g>
</g>
<g>
</g>
<g>
</g>
<g>
</g>
<g>
</g>
<g>
</g>
<g>
</g>
<g>
</g>
<g>
</g>
<g>
</g>
<g>
</g>
<g>
</g>
<g>
</g>
</svg>
