<?xml version="1.0" encoding="iso-8859-1"?>
<!-- Generator: Adobe Illustrator 19.0.0, SVG Export Plug-In . SVG Version: 6.00 Build 0)  -->
<svg version="1.1" id="Capa_1" xmlns="http://www.w3.org/2000/svg" xmlns:xlink="http://www.w3.org/1999/xlink" x="0px" y="0px"
	 viewBox="0 0 460.001 460.001" style="enable-background:new 0 0 460.001 460.001;" xml:space="preserve">
<g id="XMLID_976_">
	<path id="XMLID_981_" d="M315.903,280.426c5.14-14.085,6.728-28.804,4.571-42.97c-0.9-5.908-2.457-11.668-4.638-17.22
		c6.57-18.021,8.267-39.613,0.057-60.48c10.078-27.787,8.561-64.03-22.938-92.988c-22.201-20.409-33.936-43.497-33.936-66.767V0h-30
		v343.365c-6.239-2.564-13.111-3.921-20.305-3.921c-17.458,0-35.266,7.796-48.857,21.388c-25.344,25.343-28.516,63.407-7.072,84.853
		c9.232,9.232,22.016,14.316,35.995,14.316c17.458,0,35.266-7.796,48.857-21.388c11.843-11.843,19.308-26.842,21.018-42.234
		c0.244-2.198,0.354-4.379,0.354-6.537h0.01v-73.971c4.136,4.81,8.676,9.503,13.632,14.06c26.42,24.289,20.829,55.355,8.014,74.579
		l24.961,16.641c14.818-22.226,21.237-52.396,10.288-80.45C322.428,322.718,324.08,301.21,315.903,280.426z M291.246,185.826
		c-15.86-15.051-26.086-31.502-30.184-48.374c3.578,3.997,7.437,7.912,11.59,11.73C285.786,161.258,290.483,174.286,291.246,185.826
		z M272.651,209.513c13.205,12.141,17.895,25.189,18.654,36.699c-15.895-15.065-26.142-31.537-30.244-48.43
		C264.64,201.779,268.498,205.694,272.651,209.513z M272.651,88.854c13.134,12.074,17.831,25.103,18.595,36.643
		c-15.86-15.05-26.086-31.501-30.184-48.372C264.64,81.121,268.499,85.036,272.651,88.854z M261.139,258.197
		c3.557,3.968,7.389,7.854,11.512,11.645c13.039,11.988,17.766,24.911,18.581,36.389
		C275.481,291.281,265.287,274.95,261.139,258.197z"/>
</g>
<g>
</g>
<g>
</g>
<g>
</g>
<g>
</g>
<g>
</g>
<g>
</g>
<g>
</g>
<g>
</g>
<g>
</g>
<g>
</g>
<g>
</g>
<g>
</g>
<g>
</g>
<g>
</g>
<g>
</g>
</svg>
