<?xml version="1.0" encoding="iso-8859-1"?>
<!-- Generator: Adobe Illustrator 19.0.0, SVG Export Plug-In . SVG Version: 6.00 Build 0)  -->
<svg version="1.1" id="Capa_1" xmlns="http://www.w3.org/2000/svg" xmlns:xlink="http://www.w3.org/1999/xlink" x="0px" y="0px"
	 viewBox="0 0 370 370" style="enable-background:new 0 0 370 370;" xml:space="preserve">
<g id="XMLID_2_">
	<path id="XMLID_990_" d="M223.935,270.831c-13.592-13.592-31.399-21.388-48.857-21.388c-7.193,0-14.065,1.356-20.305,3.921v-93.539
		c5.808,7.304,12.425,14.393,19.848,21.217c15.039,13.827,22.623,30.275,22.541,48.891c0,0.022-0.002,0.046-0.002,0.068h30.002
		c0.051-13.913-2.892-27.178-8.65-39.437c14.798-34.185,12.807-77.868-23.586-111.326C168.658,55.09,154.773,27.69,154.773,0h-30
		v299.841h0.01c0,2.158,0.11,4.339,0.354,6.537c1.71,15.393,9.175,30.392,21.018,42.234C159.747,362.204,177.555,370,195.013,370
		c13.979,0,26.763-5.084,35.995-14.316C252.451,334.238,249.279,296.174,223.935,270.831z M174.621,101.324
		c19.909,18.303,24.707,39.794,21.729,58.974c-0.472-0.448-0.942-0.897-1.425-1.341c-26.143-24.033-40.014-51.287-40.146-78.842
		C160.586,87.416,167.201,94.502,174.621,101.324z"/>
</g>
<g>
</g>
<g>
</g>
<g>
</g>
<g>
</g>
<g>
</g>
<g>
</g>
<g>
</g>
<g>
</g>
<g>
</g>
<g>
</g>
<g>
</g>
<g>
</g>
<g>
</g>
<g>
</g>
<g>
</g>
</svg>
