<?xml version="1.0" encoding="iso-8859-1"?>
<!-- Generator: Adobe Illustrator 19.0.0, SVG Export Plug-In . SVG Version: 6.00 Build 0)  -->
<svg version="1.1" id="Capa_1" xmlns="http://www.w3.org/2000/svg" xmlns:xlink="http://www.w3.org/1999/xlink" x="0px" y="0px"
	 viewBox="0 0 420.453 420.453" style="enable-background:new 0 0 420.453 420.453;" xml:space="preserve">
<path id="XMLID_1015_" d="M90.453,65.156v173.505c-6.239-2.564-13.111-3.921-20.305-3.921c-17.458,0-35.266,7.796-48.857,21.388
	c-25.344,25.343-28.516,63.407-7.072,84.853c9.232,9.232,22.016,14.316,35.995,14.316c17.458,0,35.266-7.796,48.857-21.388
	c11.843-11.843,19.308-26.842,21.018-42.234c0.244-2.198,0.354-4.379,0.354-6.537h0.01V155.156h120v83.505
	c-6.239-2.564-13.111-3.921-20.305-3.921c-17.458,0-35.266,7.796-48.857,21.388c-25.344,25.343-28.516,63.407-7.072,84.853
	c9.232,9.232,22.016,14.316,35.995,14.316c17.458,0,35.266-7.796,48.857-21.388c11.843-11.843,19.308-26.842,21.018-42.234
	c0.244-2.198,0.354-4.379,0.354-6.537h0.01V95.156h120v143.505c-6.239-2.564-13.111-3.921-20.305-3.921
	c-17.458,0-35.266,7.796-48.857,21.388c-25.344,25.343-28.516,63.407-7.072,84.853c9.232,9.232,22.016,14.316,35.995,14.316
	c17.458,0,35.266-7.796,48.858-21.388c11.843-11.843,19.308-26.842,21.017-42.234c0.244-2.198,0.354-4.379,0.354-6.537h0.01V65.156
	H90.453z M240.453,125.156h-120v-30h120V125.156z"/>
<g>
</g>
<g>
</g>
<g>
</g>
<g>
</g>
<g>
</g>
<g>
</g>
<g>
</g>
<g>
</g>
<g>
</g>
<g>
</g>
<g>
</g>
<g>
</g>
<g>
</g>
<g>
</g>
<g>
</g>
</svg>
