<?xml version="1.0" encoding="iso-8859-1"?>
<!-- Generator: Adobe Illustrator 19.0.0, SVG Export Plug-In . SVG Version: 6.00 Build 0)  -->
<svg version="1.1" id="Capa_1" xmlns="http://www.w3.org/2000/svg" xmlns:xlink="http://www.w3.org/1999/xlink" x="0px" y="0px"
	 viewBox="0 0 390 390" style="enable-background:new 0 0 390 390;" xml:space="preserve">
<g id="XMLID_231_">
	<path id="XMLID_309_" d="M90,0v390h30v-30h30v30h30v-30h30v30h30v-30h30v30h30V0H90z M270,60v30h-30V60H270z M180,150v-30h30v30
		H180z M210,180v30h-30v-30H210z M150,150h-30v-30h30V150z M150,180v30h-30v-30H150z M150,240v30h-30v-30H150z M180,240h30v30h-30
		V240z M240,240h30v30h-30V240z M240,210v-30h30v30H240z M240,150v-30h30v30H240z M210,60v30h-30V60H210z M150,60v30h-30V60H150z
		 M120,330v-30h30v30H120z M180,330v-30h30v30H180z M240,330v-30h30v30H240z"/>
</g>
<g>
</g>
<g>
</g>
<g>
</g>
<g>
</g>
<g>
</g>
<g>
</g>
<g>
</g>
<g>
</g>
<g>
</g>
<g>
</g>
<g>
</g>
<g>
</g>
<g>
</g>
<g>
</g>
<g>
</g>
</svg>
