<?xml version="1.0" encoding="iso-8859-1"?>
<!-- Generator: Adobe Illustrator 19.0.0, SVG Export Plug-In . SVG Version: 6.00 Build 0)  -->
<svg version="1.1" id="Capa_1" xmlns="http://www.w3.org/2000/svg" xmlns:xlink="http://www.w3.org/1999/xlink" x="0px" y="0px"
	 viewBox="0 0 360 360" style="enable-background:new 0 0 360 360;" xml:space="preserve">
<path id="XMLID_477_" d="M360,75V45H0v30h135v30H0v30h135v30H0v30h135v30H0v30h135v30H0v30h360v-30H225v-30h135v-30H225v-30h135v-30
	H225v-30h135v-30H225V75H360z M195,285h-30v-30h30V285z M195,225h-30v-30h30V225z M195,165h-30v-30h30V165z M195,105h-30V75h30V105z
	"/>
<g>
</g>
<g>
</g>
<g>
</g>
<g>
</g>
<g>
</g>
<g>
</g>
<g>
</g>
<g>
</g>
<g>
</g>
<g>
</g>
<g>
</g>
<g>
</g>
<g>
</g>
<g>
</g>
<g>
</g>
</svg>
