<?xml version="1.0" encoding="iso-8859-1"?>
<!-- Generator: Adobe Illustrator 19.0.0, SVG Export Plug-In . SVG Version: 6.00 Build 0)  -->
<svg version="1.1" id="Capa_1" xmlns="http://www.w3.org/2000/svg" xmlns:xlink="http://www.w3.org/1999/xlink" x="0px" y="0px"
	 viewBox="0 0 390 390" style="enable-background:new 0 0 390 390;" xml:space="preserve">
<g id="XMLID_24_">
	<path id="XMLID_89_" d="M30,0v390h30v-30h30v30h30v-30h30v30h30v-30h30v30h30v-30h30v30h30v-30h30v30h30V0H30z M330,90h-30V60h30
		V90z M180,180h30v30h-30V180z M150,210h-30v-30h30V210z M180,150v-30h30v30H180z M240,180h30v30h-30V180z M240,150v-30h30v30H240z
		 M240,90V60h30v30H240z M210,90h-30V60h30V90z M150,90h-30V60h30V90z M150,120v30h-30v-30H150z M90,150H60v-30h30V150z M90,180v30
		H60v-30H90z M90,240v30H60v-30H90z M120,240h30v30h-30V240z M180,240h30v30h-30V240z M240,240h30v30h-30V240z M300,240h30v30h-30
		V240z M300,210v-30h30v30H300z M300,150v-30h30v30H300z M90,60v30H60V60H90z M60,330v-30h30v30H60z M120,330v-30h30v30H120z
		 M180,330v-30h30v30H180z M240,330v-30h30v30H240z M300,330v-30h30v30H300z"/>
</g>
<g>
</g>
<g>
</g>
<g>
</g>
<g>
</g>
<g>
</g>
<g>
</g>
<g>
</g>
<g>
</g>
<g>
</g>
<g>
</g>
<g>
</g>
<g>
</g>
<g>
</g>
<g>
</g>
<g>
</g>
</svg>
