<?xml version="1.0" encoding="iso-8859-1"?>
<!-- Generator: Adobe Illustrator 19.0.0, SVG Export Plug-In . SVG Version: 6.00 Build 0)  -->
<svg version="1.1" id="Capa_1" xmlns="http://www.w3.org/2000/svg" xmlns:xlink="http://www.w3.org/1999/xlink" x="0px" y="0px"
	 viewBox="0 0 450 450" style="enable-background:new 0 0 450 450;" xml:space="preserve">
<g id="XMLID_1_">
	<path id="XMLID_995_" d="M263.94,350.831c-13.592-13.592-31.399-21.388-48.857-21.388c-7.193,0-14.065,1.356-20.305,3.921v-93.258
		c5.808,7.304,12.425,14.393,19.848,21.217c15.039,13.827,22.623,30.275,22.541,48.891c0,0.022-0.002,0.046-0.002,0.068h30.002
		c0.052-13.968-2.914-27.283-8.719-39.583c10.525-24.222,12.618-53.232,0.001-80.002c14.86-34.204,12.911-77.958-23.528-111.459
		c-26.07-23.967-39.936-51.138-40.143-78.615V0h-0.01h-29.99h-0.01c0,0.22,0.009,0.438,0.01,0.658V80h-0.01
		c0,0.22,0.009,0.438,0.01,0.658v299.183h0.01c0,2.158,0.11,4.339,0.354,6.537c1.71,15.393,9.175,30.392,21.018,42.234
		C199.752,442.204,217.56,450,235.018,450c13.98,0,26.763-5.084,35.995-14.316C292.456,414.238,289.284,376.174,263.94,350.831z
		 M194.78,160.122c5.805,7.298,12.418,14.382,19.836,21.202c19.99,18.378,24.742,39.968,21.689,59.207
		c-0.456-0.433-0.91-0.865-1.375-1.293C208.702,215.125,194.821,187.77,194.78,160.122z M214.616,101.324
		c19.993,18.38,24.744,39.974,21.688,59.215c-0.457-0.435-0.914-0.869-1.383-1.301c-26.07-23.967-39.936-51.138-40.143-78.615
		v-0.504C200.584,87.419,207.197,94.504,214.616,101.324z"/>
</g>
<g>
</g>
<g>
</g>
<g>
</g>
<g>
</g>
<g>
</g>
<g>
</g>
<g>
</g>
<g>
</g>
<g>
</g>
<g>
</g>
<g>
</g>
<g>
</g>
<g>
</g>
<g>
</g>
<g>
</g>
</svg>
