<?xml version="1.0" encoding="iso-8859-1"?>
<!-- Generator: Adobe Illustrator 19.0.0, SVG Export Plug-In . SVG Version: 6.00 Build 0)  -->
<svg version="1.1" id="Capa_1" xmlns="http://www.w3.org/2000/svg" xmlns:xlink="http://www.w3.org/1999/xlink" x="0px" y="0px"
	 viewBox="0 0 420 420" style="enable-background:new 0 0 420 420;" xml:space="preserve">
<g id="XMLID_1011_">
	<path id="XMLID_1012_" d="M153.845,268.894c11.843-11.843,19.308-26.842,21.018-42.234c0.244-2.198,0.354-4.379,0.354-6.537h0.01V0
		h-30v173.645c-6.239-2.564-13.111-3.921-20.305-3.921c-17.458,0-35.266,7.796-48.857,21.388
		c-25.344,25.343-28.516,63.407-7.072,84.853c9.232,9.232,22.016,14.316,35.995,14.316
		C122.445,290.281,140.253,282.485,153.845,268.894z"/>
	<path id="XMLID_1013_" d="M365.227,0h-30v173.645c-6.239-2.564-13.111-3.921-20.305-3.921c-17.458,0-35.266,7.796-48.857,21.388
		c-25.344,25.343-28.516,63.407-7.072,84.853c9.232,9.232,22.016,14.316,35.995,14.316c17.458,0,35.266-7.796,48.857-21.388
		c11.843-11.843,19.308-26.842,21.018-42.234c0.244-2.198,0.354-4.379,0.354-6.537h0.01V0z"/>
	<path id="XMLID_1014_" d="M266.098,367.746C249.585,382.097,227.968,390,205.227,390s-44.359-7.903-60.871-22.254
		c-15.334-13.326-24.129-30.729-24.129-47.746h-30c0,25.707,12.557,51.363,34.45,70.39c21.971,19.095,50.577,29.61,80.55,29.61
		c29.973,0,58.579-10.516,80.55-29.61c21.894-19.026,34.45-44.683,34.45-70.39h-30C290.227,337.017,281.432,354.42,266.098,367.746z
		"/>
</g>
<g>
</g>
<g>
</g>
<g>
</g>
<g>
</g>
<g>
</g>
<g>
</g>
<g>
</g>
<g>
</g>
<g>
</g>
<g>
</g>
<g>
</g>
<g>
</g>
<g>
</g>
<g>
</g>
<g>
</g>
</svg>
