<?xml version="1.0" encoding="iso-8859-1"?>
<!-- Generator: Adobe Illustrator 19.0.0, SVG Export Plug-In . SVG Version: 6.00 Build 0)  -->
<svg version="1.1" id="Capa_1" xmlns="http://www.w3.org/2000/svg" xmlns:xlink="http://www.w3.org/1999/xlink" x="0px" y="0px"
	 viewBox="0 0 152.314 152.314" style="enable-background:new 0 0 152.314 152.314;" xml:space="preserve">
<path id="XMLID_898_" d="M147.6,37.003c-6.15,0-12.403,2.05-18.758,6.149c-6.355,4.101-12.13,9.772-17.322,17.016l4.715-21.73
	H51.045l7.38-34.235h-32.8l-7.38,34.235H5.535L0,63.243h12.915l-11.89,56.169c-0.548,2.736-0.82,5.535-0.82,8.405
	c0,7.38,2.255,12.607,6.765,15.683c4.51,3.075,10.25,4.612,17.22,4.612c5.74,0,11.547-0.753,17.425-2.255
	c5.875-1.502,11.275-3.348,16.195-5.535v-26.035c-2.326,0.958-4.853,1.846-7.585,2.665c-2.736,0.82-5.196,1.23-7.38,1.23
	c-2.05,0-3.725-0.513-5.022-1.538c-1.3-1.024-1.947-2.696-1.947-5.022c0-0.544,0.032-1.092,0.103-1.64
	c0.067-0.545,0.169-1.159,0.307-1.845l9.43-44.895h35.093L63.14,146.063h32.8l13.735-64.575c3.962-4.92,9.19-8.609,15.683-11.069
	c6.49-2.461,13.428-3.758,20.808-3.896l6.15-29.315C151.767,37.073,150.194,37.003,147.6,37.003z"/>
<g>
</g>
<g>
</g>
<g>
</g>
<g>
</g>
<g>
</g>
<g>
</g>
<g>
</g>
<g>
</g>
<g>
</g>
<g>
</g>
<g>
</g>
<g>
</g>
<g>
</g>
<g>
</g>
<g>
</g>
</svg>
